<?xml version="1.0" standalone="no"?>
<!DOCTYPE svg PUBLIC "-//W3C//DTD SVG 20010904//EN"
 "http://www.w3.org/TR/2001/REC-SVG-20010904/DTD/svg10.dtd">
<svg version="1.0" xmlns="http://www.w3.org/2000/svg"
 width="812.000000pt" height="741.000000pt" viewBox="0 0 812.000000 741.000000"
 preserveAspectRatio="xMidYMid meet">

<g transform="translate(0.000000,741.000000) scale(0.100000,-0.100000)"
fill="#000000" stroke="none">
<path d="M2760 4600 c-46 -8 -77 -26 -94 -53 -8 -12 -53 -124 -100 -250 -168
-447 -432 -1068 -467 -1099 -11 -9 -71 -44 -135 -78 -326 -172 -737 -466 -899
-642 -80 -88 -183 -239 -223 -328 -62 -139 -77 -198 -77 -305 0 -90 3 -105 27
-152 31 -57 70 -91 144 -125 96 -44 304 -23 435 43 249 124 547 533 885 1210
l78 157 131 56 c192 81 329 132 510 186 178 53 264 75 271 68 2 -3 -16 -83
-41 -178 -25 -95 -45 -190 -45 -210 0 -73 72 -140 151 -140 29 0 71 21 190 93
85 52 245 149 357 217 111 68 204 121 206 119 2 -2 9 -76 15 -163 12 -170 21
-200 72 -239 15 -10 47 -22 73 -24 52 -6 75 6 309 162 70 46 127 82 127 79 0
-3 -8 -34 -17 -69 -16 -59 -16 -65 1 -109 10 -27 30 -55 49 -68 l32 -23 1235
-3 c1218 -2 1235 -2 1268 18 96 59 95 183 -1 254 -28 21 -30 21 -1138 24
-1048 2 -1110 3 -1105 20 48 151 86 291 86 314 0 97 -94 168 -184 141 -18 -6
-139 -80 -270 -167 -130 -86 -241 -156 -245 -156 -4 0 -12 72 -18 160 -8 135
-13 165 -29 187 -37 50 -72 68 -127 68 -50 0 -66 -9 -350 -183 -164 -100 -300
-182 -301 -182 -2 0 9 48 25 108 41 153 39 202 -14 260 -37 40 -85 46 -205 22
-233 -47 -508 -123 -717 -199 -60 -22 -111 -39 -113 -37 -2 2 29 80 68 172
173 407 340 851 340 900 0 94 -78 160 -170 144z m-931 -1957 c-120 -220 -264
-440 -372 -570 -110 -133 -198 -200 -290 -222 -88 -21 -118 7 -91 86 65 190
203 362 434 538 116 88 340 244 353 245 5 0 -11 -35 -34 -77z"/>
</g>
</svg>
